/* XPM */
static char *d761ee7686e74a20985e655b41cc7e30MsM91l58Z42aUzcd[] = {
/* columns rows colors chars-per-pixel */
"128 128 4 1 ",
"  c black",
". c #FFF200",
"X c #B4B4B4",
"o c white",
/* pixels */
"oooooooooooooooooooooooooooooooooooooooooooooooooooooooooooooooooooooooooooooooooooooooooooooooooooooooooooooooooooooooooooooooo",
"oooooooooooooooooooooooooooooooooooooooooooooooooooooooooooooooooooooooooooooooooooooooooooooooooooooooooooooooooooooooooooooooo",
"oooooooooooooooooooooooooooooooooooooooooooooooooooooooooooooooooooooooooooooooooooooooooooooooooooooooooooooooooooooooooooooooo",
"oooooooooooooooooooooooooooooooooooooooooooooooooooooooooooooooooooooooooooooooooooooooooooooooooooooooooooooooooooooooooooooooo",
"oooooooooooooooooooooooooooooooooooooooooooooooooooooooooooooooooooooooooooooooooooooooooooooooooooooooooooooooooooooooooooooooo",
"oooooooooooooooooooooooooooooooooooooooooooooooooooooooooooooooooooooooooooooooooooooooooooooooooooooooooooooooooooooooooooooooo",
"oooooooooooooooooooooooooooooooooooooooooooooooooooooooooooooooooooooooooooooooooooooooooooooooooooooooooooooooooooooooooooooooo",
"oooooooooooooooooooooooooooooooooooooooooooooooooooooooooooooooooooooooooooooooooooooooooooooooooooooooooooooooooooooooooooooooo",
"oooooooooooooooooooooooooooooooooooooooooooooooooooooooooooooooooooooooooooooooooooooooooooooooooooooooooooooooooooooooooooooooo",
"oooooooooooooooooooooooooooooooooooooooooooooooooooooooooooooooooooooooooooooooooooooooooooooooooooooooooooooooooooooooooooooooo",
"oooooooooooooooooooooooooooooooooooooooooooooooooooooooooooooooooooooooooooooooooooooooooooooooooooooooooooooooooooooooooooooooo",
"oooooooooooooooooooooooooooooooooooooooooooooooooooooooooooooooooooooooooooooooooooooooooooooooooooooooooooooooooooooooooooooooo",
"oooooooooooooooooooooooooooooooooooooooooooooooooooooooooooooooooooooooooooooooooooooooooooooooooooooooooooooooooooooooooooooooo",
"oooooooooooooooooooooooooooooooooooooooooooooooooooooooooooooooooooooooooooooooooooooooooooooooooooooooooooooooooooooooooooooooo",
"oooooooooooooooooooooooooooooooooooooooooooooooooooooooooooooooooooooooooooooooooooooooooooooooooooooooooooooooooooooooooooooooo",
"oooooooooooooooooooooooooooooooooooooooooooooooooooooooooooooooooooooooooooooooooooooooooooooooooooooooooooooooooooooooooooooooo",
"oooooooooooooooooooooooooooooooooooooooooooooooooooooooooooooooooooooooooooooooooooooooooooooooooooooooooooooooooooooooooooooooo",
"oooooooooooooooooooooooooooooooooooooooooooooooooooooooooooooooooooooooooooooooooooooooooooooooooooooooooooooooooooooooooooooooo",
"oooooooooooooooooooooooooooooooooooooooooooooooooooooooooooooooooooooooooooooooooooooooooooooooooooooooooooooooooooooooooooooooo",
"ooooooooooooooooooooooooooooooooooooooooooooooooooooooooXXXXXXXXXXXXXooooooooooooooooooooooooooooooooooooooooooooooooooooooooooo",
"ooooooooooooooooooooooooooooooooooooooooooooooooooooXXXX.............XXXXooooooooooooooooooooooooooooooooooooooooooooooooooooooo",
"oooooooooooooooooooooooooooooooooooooooooooooooooXXX.....................XXXoooooooooooooooooooooooooooooooooooooooooooooooooooo",
"ooooooooooooooooooooooooooooooooooooooooooooooXXX...........................XXXooooooooooooooooooooooooooooooooooooooooooooooooo",
"ooooooooooooooooooooooooooooooooooooooooooooXX.................................XXooooooooooooooooooooooooooooooooooooooooooooooo",
"ooooooooooooooooooooooooooooooooooooooooooXX.....................................XXooooooooooooooooooooooooooooooooooooooooooooo",
"oooooooooooooooooooooooooooooooooooooooooX.........................................Xoooooooooooooooooooooooooooooooooooooooooooo",
"oooooooooooooooooooooooooooooooooooooooXX...........................................XXoooooooooooooooooooooooooooooooooooooooooo",
"ooooooooooooooooooooooooooooooooooooooX...............................................Xooooooooooooooooooooooooooooooooooooooooo",
"oooooooooooooooooooooooooooooooooooooX.................................................Xoooooooooooooooooooooooooooooooooooooooo",
"ooooooooooooooooooooooooooooooooooooX...................................................Xooooooooooooooooooooooooooooooooooooooo",
"oooooooooooooooooooooooooooooooooooX.....................................................Xoooooooooooooooooooooooooooooooooooooo",
"ooooooooooooooooooooooooooooooooooX.......................................................Xooooooooooooooooooooooooooooooooooooo",
"oooooooooooooooooooooooooooooooooX.........................................................Xoooooooooooooooooooooooooooooooooooo",
"ooooooooooooooooooooooooooooooooX...........................................................Xooooooooooooooooooooooooooooooooooo",
"oooooooooooooooooooooooooooooooX.............................................................Xoooooooooooooooooooooooooooooooooo",
"ooooooooooooooooooooooooooooooX.............    ..............................................Xooooooooooooooooooooooooooooooooo",
"ooooooooooooooooooooooooooooooX............  ..    .........................     .............Xooooooooooooooooooooooooooooooooo",
"oooooooooooooooooooooooooooooX............  .......   ....................  ....  .............Xoooooooooooooooooooooooooooooooo",
"ooooooooooooooooooooooooooooX............. ........... .................. ....... ..............Xooooooooooooooooooooooooooooooo",
"ooooooooooooooooooooooooooooX............. ...........  ................. .......   ............Xooooooooooooooooooooooooooooooo",
"oooooooooooooooooooooooooooX.............. ............ ................ ...........  ...........Xoooooooooooooooooooooooooooooo",
"oooooooooooooooooooooooooooX.............. ............ ................ ............ ...........Xoooooooooooooooooooooooooooooo",
"ooooooooooooooooooooooooooX............... ............ ................ ............  ...........Xooooooooooooooooooooooooooooo",
"ooooooooooooooooooooooooooX..............  ............ ................ ............. ...........Xooooooooooooooooooooooooooooo",
"oooooooooooooooooooooooooX............... ............. ............... ..............  ...........Xoooooooooooooooooooooooooooo",
"oooooooooooooooooooooooooX............... ............. ............... ............... ...........Xoooooooooooooooooooooooooooo",
"ooooooooooooooooooooooooX................ ............ ................  ..............  ...........Xooooooooooooooooooooooooooo",
"ooooooooooooooooooooooooX................ ............ ................. ............... ...........Xooooooooooooooooooooooooooo",
"ooooooooooooooooooooooooX................  .......... .................. ............... ...........Xooooooooooooooooooooooooooo",
"oooooooooooooooooooooooX..................  ........  ................... .............. ............Xoooooooooooooooooooooooooo",
"oooooooooooooooooooooooX...................   .....  ....................  ............  ............Xoooooooooooooooooooooooooo",
"oooooooooooooooooooooooX.....................      ....................... .........    .............Xoooooooooooooooooooooooooo",
"oooooooooooooooooooooooX...................................................          ................Xoooooooooooooooooooooooooo",
"oooooooooooooooooooooooX.............................................................................Xoooooooooooooooooooooooooo",
"ooooooooooooooooooooooX...............................................................................Xooooooooooooooooooooooooo",
"ooooooooooooooooooooooX...............................................................................Xooooooooooooooooooooooooo",
"ooooooooooooooooooooooX...............................................................................Xooooooooooooooooooooooooo",
"ooooooooooooooooooooooX...............................................................................Xooooooooooooooooooooooooo",
"ooooooooooooooooooooooX...............................................................................Xooooooooooooooooooooooooo",
"ooooooooooooooooooooooX...............................................................................Xooooooooooooooooooooooooo",
"ooooooooooooooooooooooX...............................................................................Xooooooooooooooooooooooooo",
"ooooooooooooooooooooooX...............................................................................Xooooooooooooooooooooooooo",
"ooooooooooooooooooooooX...............................................................................Xooooooooooooooooooooooooo",
"ooooooooooooooooooooooX...............................................................................Xooooooooooooooooooooooooo",
"ooooooooooooooooooooooX...............................................................................Xooooooooooooooooooooooooo",
"ooooooooooooooooooooooX...............................................................................Xooooooooooooooooooooooooo",
"ooooooooooooooooooooooX...............................................................................Xooooooooooooooooooooooooo",
"oooooooooooooooooooooooX.............................................................................Xoooooooooooooooooooooooooo",
"oooooooooooooooooooooooX.............................................................................Xoooooooooooooooooooooooooo",
"oooooooooooooooooooooooX.............................................................. ..............Xoooooooooooooooooooooooooo",
"oooooooooooooooooooooooX................ ............................................  ..............Xoooooooooooooooooooooooooo",
"oooooooooooooooooooooooX................ ........................................... ................Xoooooooooooooooooooooooooo",
"ooooooooooooooooooooooooX............... .......................................... ................Xooooooooooooooooooooooooooo",
"ooooooooooooooooooooooooX...............  .......................................  .................Xooooooooooooooooooooooooooo",
"ooooooooooooooooooooooooX................ ......................................  ..................Xooooooooooooooooooooooooooo",
"oooooooooooooooooooooooooX...............  ...................................   ..................Xoooooooooooooooooooooooooooo",
"oooooooooooooooooooooooooX................   ................................  ....................Xoooooooooooooooooooooooooooo",
"ooooooooooooooooooooooooooX.................. ............................... ....................Xooooooooooooooooooooooooooooo",
"ooooooooooooooooooooooooooX...................   ........................... .....................Xooooooooooooooooooooooooooooo",
"oooooooooooooooooooooooooooX....................          ...............    ....................Xoooooooooooooooooooooooooooooo",
"oooooooooooooooooooooooooooX..............................                .......................Xoooooooooooooooooooooooooooooo",
"ooooooooooooooooooooooooooooX...................................................................Xooooooooooooooooooooooooooooooo",
"ooooooooooooooooooooooooooooX...................................................................Xooooooooooooooooooooooooooooooo",
"oooooooooooooooooooooooooooooX.................................................................Xoooooooooooooooooooooooooooooooo",
"ooooooooooooooooooooooooooooooX...............................................................Xooooooooooooooooooooooooooooooooo",
"ooooooooooooooooooooooooooooooX...............................................................Xooooooooooooooooooooooooooooooooo",
"oooooooooooooooooooooooooooooooX.............................................................Xoooooooooooooooooooooooooooooooooo",
"ooooooooooooooooooooooooooooooooX...........................................................Xooooooooooooooooooooooooooooooooooo",
"oooooooooooooooooooooooooooooooooX.........................................................Xoooooooooooooooooooooooooooooooooooo",
"ooooooooooooooooooooooooooooooooooX.......................................................Xooooooooooooooooooooooooooooooooooooo",
"oooooooooooooooooooooooooooooooooooX.....................................................Xoooooooooooooooooooooooooooooooooooooo",
"ooooooooooooooooooooooooooooooooooooX...................................................Xooooooooooooooooooooooooooooooooooooooo",
"oooooooooooooooooooooooooooooooooooooX.................................................Xoooooooooooooooooooooooooooooooooooooooo",
"ooooooooooooooooooooooooooooooooooooooX...............................................Xooooooooooooooooooooooooooooooooooooooooo",
"oooooooooooooooooooooooooooooooooooooooXX...........................................XXoooooooooooooooooooooooooooooooooooooooooo",
"oooooooooooooooooooooooooooooooooooooooooX.........................................Xoooooooooooooooooooooooooooooooooooooooooooo",
"ooooooooooooooooooooooooooooooooooooooooooXX.....................................XXooooooooooooooooooooooooooooooooooooooooooooo",
"ooooooooooooooooooooooooooooooooooooooooooooXX.................................XXooooooooooooooooooooooooooooooooooooooooooooooo",
"ooooooooooooooooooooooooooooooooooooooooooooooXXX...........................XXXooooooooooooooooooooooooooooooooooooooooooooooooo",
"oooooooooooooooooooooooooooooooooooooooooooooooooXXX.....................XXXoooooooooooooooooooooooooooooooooooooooooooooooooooo",
"ooooooooooooooooooooooooooooooooooooooooooooooooooooXXXX.............XXXXooooooooooooooooooooooooooooooooooooooooooooooooooooooo",
"ooooooooooooooooooooooooooooooooooooooooooooooooooooooooXXXXXXXXXXXXXooooooooooooooooooooooooooooooooooooooooooooooooooooooooooo",
"oooooooooooooooooooooooooooooooooooooooooooooooooooooooooooooooooooooooooooooooooooooooooooooooooooooooooooooooooooooooooooooooo",
"oooooooooooooooooooooooooooooooooooooooooooooooooooooooooooooooooooooooooooooooooooooooooooooooooooooooooooooooooooooooooooooooo",
"oooooooooooooooooooooooooooooooooooooooooooooooooooooooooooooooooooooooooooooooooooooooooooooooooooooooooooooooooooooooooooooooo",
"oooooooooooooooooooooooooooooooooooooooooooooooooooooooooooooooooooooooooooooooooooooooooooooooooooooooooooooooooooooooooooooooo",
"oooooooooooooooooooooooooooooooooooooooooooooooooooooooooooooooooooooooooooooooooooooooooooooooooooooooooooooooooooooooooooooooo",
"oooooooooooooooooooooooooooooooooooooooooooooooooooooooooooooooooooooooooooooooooooooooooooooooooooooooooooooooooooooooooooooooo",
"oooooooooooooooooooooooooooooooooooooooooooooooooooooooooooooooooooooooooooooooooooooooooooooooooooooooooooooooooooooooooooooooo",
"oooooooooooooooooooooooooooooooooooooooooooooooooooooooooooooooooooooooooooooooooooooooooooooooooooooooooooooooooooooooooooooooo",
"oooooooooooooooooooooooooooooooooooooooooooooooooooooooooooooooooooooooooooooooooooooooooooooooooooooooooooooooooooooooooooooooo",
"oooooooooooooooooooooooooooooooooooooooooooooooooooooooooooooooooooooooooooooooooooooooooooooooooooooooooooooooooooooooooooooooo",
"oooooooooooooooooooooooooooooooooooooooooooooooooooooooooooooooooooooooooooooooooooooooooooooooooooooooooooooooooooooooooooooooo",
"oooooooooooooooooooooooooooooooooooooooooooooooooooooooooooooooooooooooooooooooooooooooooooooooooooooooooooooooooooooooooooooooo",
"oooooooooooooooooooooooooooooooooooooooooooooooooooooooooooooooooooooooooooooooooooooooooooooooooooooooooooooooooooooooooooooooo",
"oooooooooooooooooooooooooooooooooooooooooooooooooooooooooooooooooooooooooooooooooooooooooooooooooooooooooooooooooooooooooooooooo",
"oooooooooooooooooooooooooooooooooooooooooooooooooooooooooooooooooooooooooooooooooooooooooooooooooooooooooooooooooooooooooooooooo",
"oooooooooooooooooooooooooooooooooooooooooooooooooooooooooooooooooooooooooooooooooooooooooooooooooooooooooooooooooooooooooooooooo",
"oooooooooooooooooooooooooooooooooooooooooooooooooooooooooooooooooooooooooooooooooooooooooooooooooooooooooooooooooooooooooooooooo",
"oooooooooooooooooooooooooooooooooooooooooooooooooooooooooooooooooooooooooooooooooooooooooooooooooooooooooooooooooooooooooooooooo",
"oooooooooooooooooooooooooooooooooooooooooooooooooooooooooooooooooooooooooooooooooooooooooooooooooooooooooooooooooooooooooooooooo",
"oooooooooooooooooooooooooooooooooooooooooooooooooooooooooooooooooooooooooooooooooooooooooooooooooooooooooooooooooooooooooooooooo",
"oooooooooooooooooooooooooooooooooooooooooooooooooooooooooooooooooooooooooooooooooooooooooooooooooooooooooooooooooooooooooooooooo",
"oooooooooooooooooooooooooooooooooooooooooooooooooooooooooooooooooooooooooooooooooooooooooooooooooooooooooooooooooooooooooooooooo",
"oooooooooooooooooooooooooooooooooooooooooooooooooooooooooooooooooooooooooooooooooooooooooooooooooooooooooooooooooooooooooooooooo",
"oooooooooooooooooooooooooooooooooooooooooooooooooooooooooooooooooooooooooooooooooooooooooooooooooooooooooooooooooooooooooooooooo",
"oooooooooooooooooooooooooooooooooooooooooooooooooooooooooooooooooooooooooooooooooooooooooooooooooooooooooooooooooooooooooooooooo",
"oooooooooooooooooooooooooooooooooooooooooooooooooooooooooooooooooooooooooooooooooooooooooooooooooooooooooooooooooooooooooooooooo"
};
