/* XPM */
static char *_1b5bfa4f61b4accbbeef4c16e386f7cxA2OYr4pCskNdwdx[] = {
/* columns rows colors chars-per-pixel */
"128 128 3 1 ",
"  c black",
". c #464646",
"X c #B4B4B4",
/* pixels */
"................................................................................................................................",
"................................................................................................................................",
"....                                                ............................................................................",
".... XXXXXXXXXXXXXXXXXXXXXXXXXXXXXXXXXXXXXXXXXXXXXX ............................................................................",
".... XXXXXXXXXXXXXXXXXXXXXXXXXXXXXXXXXXXXXXXXXXXXXX ............................................................................",
".... XXXXXXXXXXXXXXXXXXXXXXXXXXXXXXXXXXXXXXXXXXXXXX ............................................................................",
".... XXXXXXXXXXXXXXXXXXXXXXXXXXXXXXXXXXXXXXXXXXXXXX ............................................................................",
".... XXXXXXXXXXXXXXXXXXXXXXXXXXXXXXXXXXXXXXXXXXXXXX ............................................................................",
".... XXXXXXXXXXXXXXXXXXXXXXXXXXXXXXXXXXXXXXXXXXXXXX ............................................................................",
".... XXXXXXXXXXXXXXXXXXXXXXXXXXXXXXXXXXXXXXXXXXXXXX ............................................................................",
".... XXXXXXXXXXXXXXXXXXXXXXXXXXXXXXXXXXXXXXXXXXXXXX ............................................................................",
".... XXXXXXXXXXXXXXXXXXXXXXXXXXXXXXXXXXXXXXXXXXXXXX ............................................................................",
".... XXXXXXXXXXXXXXXXXXXXXXXXXXXXXXXXXXXXXXXXXXXXXX ............................................................................",
".... XXXXXXXXXXXXXXXXXXXXXXXXXXXXXXXXXXXXXXXXXXXXXX ............................................................................",
".... XXXXXXXXXXXXXXXXXXXXXXXXXXXXXXXXXXXXXXXXXXXXXX ............................................................................",
".... XXXXXXXXXXXXXXXXXXXXXXXXXXXXXXXXXXXXXXXXXXXXXX ............................................................................",
".... XXXXXXXXXXXXXXXXXXXXXXXXXXXXXXXXXXXXXXXXXXXXXX ............................................................................",
".... XXXXXXXXXXXXXXXXXXXXXXXXXXXXXXXXXXXXXXXXXXXXXX ............................................................................",
".... XXXXXXXXXXXXXXXXXXXXXXXXXXXXXXXXXXXXXXXXXXXXXX ............................................................................",
".... XXXXXXXXXXXXXXXXXXXXXXXXXXXXXXXXXXXXXXXXXXXXXX ............................................................................",
".... XXXXXXXXXXXXXXXXXXXXXXXXXXXXXXXXXXXXXXXXXXXXXX ............................................................................",
".... XXXXXXXXXXXXXXXXXXXXXXXXXXXXXXXXXXXXXXXXXXXXXX ............................................................................",
".... XXXXXXXXXXXXXXXXXXXXXXXXXXXXXXXXXXXXXXXXXXXXXX ............................................................................",
".... XXXXXXXXXXXXXXXXXXXXXXXXXXXXXXXXXXXXXXXXXXXXXX ............................................................................",
".... XXXXXXXXXXXXXXXXXXXXXXXXXXXXXXXXXXXXXXXXXXXXXX ............................................................................",
".... XXXXXXXXXXXXXXXXXXXXXXXXXXXXXXXXXXXXXXXXXXXXXX ............................................................................",
".... XXXXXXXXXXXXXXXXXXXXXXXXXXXXXXXXXXXXXXXXXXXXXX ............................................................................",
".... XXXXXXXXXXXXXXXXXXXXXXXXXXXXXXXXXXXXXXXXXXXXXX ............................................................................",
".... XXXXXXXXXXXXXXXXXXXXXXXXXXXXXXXXXXXXXXXXXXXXXX ............................................................................",
"....                                                ............................................................................",
"................................................................................................................................",
"................................................................................................................................",
"................................................................................................................................",
"................................................................................................................................",
"................................................................................................................................",
"................................................................................................................................",
"................................................................................................................................",
"................................................................................................................................",
"................................................................................................................................",
"................................................................................................................................",
"................................................................................................................................",
"................................................................................................................................",
"................................................................................................................................",
"...................................................................................                                        .....",
"................................................................................... XXXXXXXXXXXXXXXXXXXXXXXXXXXXXXXXXXXXXX .....",
"................................................................................... XXXXXXXXXXXXXXXXXXXXXXXXXXXXXXXXXXXXXX .....",
"................................................................................... XXXXXXXXXXXXXXXXXXXXXXXXXXXXXXXXXXXXXX .....",
"................................................................................... XXXXXXXXXXXXXXXXXXXXXXXXXXXXXXXXXXXXXX .....",
"................................................................................... XXXXXXXXXXXXXXXXXXXXXXXXXXXXXXXXXXXXXX .....",
"................................................................................... XXXXXXXXXXXXXXXXXXXXXXXXXXXXXXXXXXXXXX .....",
"................................................................................... XXXXXXXXXXXXXXXXXXXXXXXXXXXXXXXXXXXXXX .....",
"................................................................................... XXXXXXXXXXXXXXXXXXXXXXXXXXXXXXXXXXXXXX .....",
"................................................................................... XXXXXXXXXXXXXXXXXXXXXXXXXXXXXXXXXXXXXX .....",
"................................................................................... XXXXXXXXXXXXXXXXXXXXXXXXXXXXXXXXXXXXXX .....",
"................................................................................... XXXXXXXXXXXXXXXXXXXXXXXXXXXXXXXXXXXXXX .....",
"................................................................................... XXXXXXXXXXXXXXXXXXXXXXXXXXXXXXXXXXXXXX .....",
"................................................................................... XXXXXXXXXXXXXXXXXXXXXXXXXXXXXXXXXXXXXX .....",
"................................................................................... XXXXXXXXXXXXXXXXXXXXXXXXXXXXXXXXXXXXXX .....",
"................................................................................... XXXXXXXXXXXXXXXXXXXXXXXXXXXXXXXXXXXXXX .....",
"................................................................................... XXXXXXXXXXXXXXXXXXXXXXXXXXXXXXXXXXXXXX .....",
"................................................................................... XXXXXXXXXXXXXXXXXXXXXXXXXXXXXXXXXXXXXX .....",
"................................................................................... XXXXXXXXXXXXXXXXXXXXXXXXXXXXXXXXXXXXXX .....",
"................................................................................... XXXXXXXXXXXXXXXXXXXXXXXXXXXXXXXXXXXXXX .....",
".................                                                       ........... XXXXXXXXXXXXXXXXXXXXXXXXXXXXXXXXXXXXXX .....",
"................. XXXXXXXXXXXXXXXXXXXXXXXXXXXXXXXXXXXXXXXXXXXXXXXXXXXXX ........... XXXXXXXXXXXXXXXXXXXXXXXXXXXXXXXXXXXXXX .....",
"................. XXXXXXXXXXXXXXXXXXXXXXXXXXXXXXXXXXXXXXXXXXXXXXXXXXXXX ........... XXXXXXXXXXXXXXXXXXXXXXXXXXXXXXXXXXXXXX .....",
"................. XXXXXXXXXXXXXXXXXXXXXXXXXXXXXXXXXXXXXXXXXXXXXXXXXXXXX ........... XXXXXXXXXXXXXXXXXXXXXXXXXXXXXXXXXXXXXX .....",
"................. XXXXXXXXXXXXXXXXXXXXXXXXXXXXXXXXXXXXXXXXXXXXXXXXXXXXX ........... XXXXXXXXXXXXXXXXXXXXXXXXXXXXXXXXXXXXXX .....",
"................. XXXXXXXXXXXXXXXXXXXXXXXXXXXXXXXXXXXXXXXXXXXXXXXXXXXXX ........... XXXXXXXXXXXXXXXXXXXXXXXXXXXXXXXXXXXXXX .....",
"................. XXXXXXXXXXXXXXXXXXXXXXXXXXXXXXXXXXXXXXXXXXXXXXXXXXXXX ........... XXXXXXXXXXXXXXXXXXXXXXXXXXXXXXXXXXXXXX .....",
"................. XXXXXXXXXXXXXXXXXXXXXXXXXXXXXXXXXXXXXXXXXXXXXXXXXXXXX ........... XXXXXXXXXXXXXXXXXXXXXXXXXXXXXXXXXXXXXX .....",
"................. XXXXXXXXXXXXXXXXXXXXXXXXXXXXXXXXXXXXXXXXXXXXXXXXXXXXX ........... XXXXXXXXXXXXXXXXXXXXXXXXXXXXXXXXXXXXXX .....",
"................. XXXXXXXXXXXXXXXXXXXXXXXXXXXXXXXXXXXXXXXXXXXXXXXXXXXXX ........... XXXXXXXXXXXXXXXXXXXXXXXXXXXXXXXXXXXXXX .....",
"................. XXXXXXXXXXXXXXXXXXXXXXXXXXXXXXXXXXXXXXXXXXXXXXXXXXXXX ........... XXXXXXXXXXXXXXXXXXXXXXXXXXXXXXXXXXXXXX .....",
"................. XXXXXXXXXXXXXXXXXXXXXXXXXXXXXXXXXXXXXXXXXXXXXXXXXXXXX ...........                                        .....",
"................. XXXXXXXXXXXXXXXXXXXXXXXXXXXXXXXXXXXXXXXXXXXXXXXXXXXXX ........................................................",
"................. XXXXXXXXXXXXXXXXXXXXXXXXXXXXXXXXXXXXXXXXXXXXXXXXXXXXX ........................................................",
"................. XXXXXXXXXXXXXXXXXXXXXXXXXXXXXXXXXXXXXXXXXXXXXXXXXXXXX ........................................................",
"................. XXXXXXXXXXXXXXXXXXXXXXXXXXXXXXXXXXXXXXXXXXXXXXXXXXXXX ........................................................",
"................. XXXXXXXXXXXXXXXXXXXXXXXXXXXXXXXXXXXXXXXXXXXXXXXXXXXXX ........................................................",
"................. XXXXXXXXXXXXXXXXXXXXXXXXXXXXXXXXXXXXXXXXXXXXXXXXXXXXX ........................................................",
"................. XXXXXXXXXXXXXXXXXXXXXXXXXXXXXXXXXXXXXXXXXXXXXXXXXXXXX ........................................................",
"................. XXXXXXXXXXXXXXXXXXXXXXXXXXXXXXXXXXXXXXXXXXXXXXXXXXXXX ........................................................",
"................. XXXXXXXXXXXXXXXXXXXXXXXXXXXXXXXXXXXXXXXXXXXXXXXXXXXXX ........................................................",
"................. XXXXXXXXXXXXXXXXXXXXXXXXXXXXXXXXXXXXXXXXXXXXXXXXXXXXX ........................................................",
"................. XXXXXXXXXXXXXXXXXXXXXXXXXXXXXXXXXXXXXXXXXXXXXXXXXXXXX ........................................................",
"................. XXXXXXXXXXXXXXXXXXXXXXXXXXXXXXXXXXXXXXXXXXXXXXXXXXXXX ........................................................",
"................. XXXXXXXXXXXXXXXXXXXXXXXXXXXXXXXXXXXXXXXXXXXXXXXXXXXXX ........................................................",
"................. XXXXXXXXXXXXXXXXXXXXXXXXXXXXXXXXXXXXXXXXXXXXXXXXXXXXX ........................................................",
"................. XXXXXXXXXXXXXXXXXXXXXXXXXXXXXXXXXXXXXXXXXXXXXXXXXXXXX ........................................................",
"................. XXXXXXXXXXXXXXXXXXXXXXXXXXXXXXXXXXXXXXXXXXXXXXXXXXXXX ........................................................",
"................. XXXXXXXXXXXXXXXXXXXXXXXXXXXXXXXXXXXXXXXXXXXXXXXXXXXXX ........................................................",
"................. XXXXXXXXXXXXXXXXXXXXXXXXXXXXXXXXXXXXXXXXXXXXXXXXXXXXX ........................................................",
"................. XXXXXXXXXXXXXXXXXXXXXXXXXXXXXXXXXXXXXXXXXXXXXXXXXXXXX ........................................................",
"................. XXXXXXXXXXXXXXXXXXXXXXXXXXXXXXXXXXXXXXXXXXXXXXXXXXXXX ........................................................",
"................. XXXXXXXXXXXXXXXXXXXXXXXXXXXXXXXXXXXXXXXXXXXXXXXXXXXXX ........................................................",
"................. XXXXXXXXXXXXXXXXXXXXXXXXXXXXXXXXXXXXXXXXXXXXXXXXXXXXX ........................................................",
"................. XXXXXXXXXXXXXXXXXXXXXXXXXXXXXXXXXXXXXXXXXXXXXXXXXXXXX ........................................................",
"................. XXXXXXXXXXXXXXXXXXXXXXXXXXXXXXXXXXXXXXXXXXXXXXXXXXXXX ........................................................",
"................. XXXXXXXXXXXXXXXXXXXXXXXXXXXXXXXXXXXXXXXXXXXXXXXXXXXXX ........................................................",
"................. XXXXXXXXXXXXXXXXXXXXXXXXXXXXXXXXXXXXXXXXXXXXXXXXXXXXX ........................................................",
"................. XXXXXXXXXXXXXXXXXXXXXXXXXXXXXXXXXXXXXXXXXXXXXXXXXXXXX ........................................................",
"................. XXXXXXXXXXXXXXXXXXXXXXXXXXXXXXXXXXXXXXXXXXXXXXXXXXXXX ........................................................",
"................. XXXXXXXXXXXXXXXXXXXXXXXXXXXXXXXXXXXXXXXXXXXXXXXXXXXXX ...............................                         ",
"................. XXXXXXXXXXXXXXXXXXXXXXXXXXXXXXXXXXXXXXXXXXXXXXXXXXXXX ............................... XXXXXXXXXXXXXXXXXXXXXXXX",
"................. XXXXXXXXXXXXXXXXXXXXXXXXXXXXXXXXXXXXXXXXXXXXXXXXXXXXX ............................... XXXXXXXXXXXXXXXXXXXXXXXX",
"................. XXXXXXXXXXXXXXXXXXXXXXXXXXXXXXXXXXXXXXXXXXXXXXXXXXXXX ............................... XXXXXXXXXXXXXXXXXXXXXXXX",
"................. XXXXXXXXXXXXXXXXXXXXXXXXXXXXXXXXXXXXXXXXXXXXXXXXXXXXX ............................... XXXXXXXXXXXXXXXXXXXXXXXX",
"................. XXXXXXXXXXXXXXXXXXXXXXXXXXXXXXXXXXXXXXXXXXXXXXXXXXXXX ............................... XXXXXXXXXXXXXXXXXXXXXXXX",
".................                                                       ............................... XXXXXXXXXXXXXXXXXXXXXXXX",
"....................................................................................................... XXXXXXXXXXXXXXXXXXXXXXXX",
"....................................................................................................... XXXXXXXXXXXXXXXXXXXXXXXX",
"....................................................................................................... XXXXXXXXXXXXXXXXXXXXXXXX",
"....................................................................................................... XXXXXXXXXXXXXXXXXXXXXXXX",
"....................................................................................................... XXXXXXXXXXXXXXXXXXXXXXXX",
"....................................................................................................... XXXXXXXXXXXXXXXXXXXXXXXX",
"....................................................................................................... XXXXXXXXXXXXXXXXXXXXXXXX",
"....................................................................................................... XXXXXXXXXXXXXXXXXXXXXXXX",
"....................................................................................................... XXXXXXXXXXXXXXXXXXXXXXXX",
"....................................................................................................... XXXXXXXXXXXXXXXXXXXXXXXX",
"....................................................................................................... XXXXXXXXXXXXXXXXXXXXXXXX",
"....................................................................................................... XXXXXXXXXXXXXXXXXXXXXXXX",
"....................................................................................................... XXXXXXXXXXXXXXXXXXXXXXXX",
"....................................................................................................... XXXXXXXXXXXXXXXXXXXXXXXX",
"....................................................................................................... XXXXXXXXXXXXXXXXXXXXXXXX",
"....................................................................................................... XXXXXXXXXXXXXXXXXXXXXXXX",
"....................................................................................................... XXXXXXXXXXXXXXXXXXXXXXXX",
"....................................................................................................... XXXXXXXXXXXXXXXXXXXXXXXX"
};
